<?xml version="1.0" encoding="utf-8"?>
<!-- Generator: Adobe Illustrator 21.0.0, SVG Export Plug-In . SVG Version: 6.00 Build 0)  -->
<svg version="1.1" id="Layer_1" xmlns="http://www.w3.org/2000/svg" xmlns:xlink="http://www.w3.org/1999/xlink" x="0px" y="0px"
	 viewBox="0 0 63 65.5" style="enable-background:new 0 0 63 65.5;" xml:space="preserve">
<style type="text/css">
	.st0{fill:#54A3DA;}
	.st1{fill:#F1616E;}
</style>
<g>
	<g>
		<path class="st0" d="M23.1,41.5V5.8C12.3,9.6,4.6,19.9,4.6,32c0,15.3,12.4,27.8,27.8,27.8c12,0,22.2-7.6,26.1-18.3H23.1z"/>
		<path class="st1" d="M53.4,11.7H28.2v24.6h27.3V13.8C55.5,12.6,54.5,11.7,53.4,11.7z M35.4,30.3c0,0.8-0.6,1.4-1.4,1.4
			c-0.8,0-1.4-0.6-1.4-1.4V17.5c0-0.8,0.6-1.4,1.4-1.4c0.8,0,1.4,0.6,1.4,1.4V30.3z M43.4,30.3c0,0.8-0.6,1.4-1.4,1.4
			s-1.4-0.6-1.4-1.4V17.5c0-0.8,0.6-1.4,1.4-1.4s1.4,0.6,1.4,1.4V30.3z M51.4,30.3c0,0.8-0.6,1.4-1.4,1.4s-1.4-0.6-1.4-1.4V17.5
			c0-0.8,0.6-1.4,1.4-1.4s1.4,0.6,1.4,1.4V30.3z"/>
	</g>
</g>
</svg>
